<?xml version="1.0" standalone="no"?>
<!DOCTYPE svg PUBLIC "-//W3C//DTD SVG 20010904//EN"
 "http://www.w3.org/TR/2001/REC-SVG-20010904/DTD/svg10.dtd">
<svg version="1.0" xmlns="http://www.w3.org/2000/svg"
 width="1280.000000pt" height="717.000000pt" viewBox="0 0 1280.000000 717.000000"
 preserveAspectRatio="xMidYMid meet">
<metadata>
Created by potrace 1.15, written by Peter Selinger 2001-2017
</metadata>
<g transform="translate(0.000000,717.000000) scale(0.100000,-0.100000)"
fill="#000000" stroke="none">
<path d="M2548 7105 l-32 -65 -223 0 -223 0 0 -113 c0 -138 -16 -199 -64 -246
-74 -72 -212 -69 -277 5 -41 47 -48 78 -50 218 l-1 136 -289 0 -289 0 0 -122
c0 -98 -4 -131 -19 -164 -57 -125 -231 -139 -308 -23 -26 40 -28 49 -31 175
l-4 134 -284 0 -284 0 0 -124 0 -123 -46 -6 c-51 -5 -92 -31 -111 -68 -10 -18
-13 -127 -13 -429 0 -302 3 -411 13 -429 19 -37 60 -63 111 -68 l46 -6 0 -326
c0 -179 4 -331 8 -338 4 -6 20 -17 35 -22 20 -8 633 -11 2003 -11 2177 0 2001
5 2061 -64 57 -64 123 -228 123 -306 0 -14 3 -35 6 -47 l6 -23 1152 -2 c1064
-3 1156 -5 1211 -21 150 -44 266 -130 314 -231 14 -30 26 -83 32 -140 20 -188
37 -254 97 -375 94 -188 264 -327 482 -392 74 -23 86 -23 745 -28 l670 -6 50
-23 c55 -25 109 -72 130 -113 8 -15 111 -332 230 -705 119 -374 245 -769 280
-879 191 -598 327 -1036 323 -1040 -3 -3 -42 -16 -88 -30 -46 -14 -86 -27 -88
-30 -3 -3 51 -146 119 -318 l125 -312 35 3 c128 13 2383 559 2463 597 130 61
134 134 25 377 -56 123 -126 299 -529 1328 -432 1104 -660 1669 -770 1910 -79
171 -79 243 -2 311 90 79 233 113 608 144 250 20 344 52 428 146 55 60 79 120
84 212 5 82 -12 167 -33 167 -6 0 -56 -7 -111 -15 -184 -28 -305 -15 -423 44
-113 58 -230 192 -286 329 -13 31 -42 124 -64 206 l-41 148 63 77 c128 154
280 253 439 285 45 9 128 16 197 16 l121 0 15 38 c38 90 58 162 62 233 5 63 2
82 -16 116 -26 53 -37 59 -52 31 -6 -13 -23 -35 -37 -51 -25 -27 -26 -28 -9
-56 29 -50 22 -87 -27 -139 l-44 -46 -40 41 c-72 74 -156 72 -316 -5 -58 -29
-117 -52 -130 -52 -37 0 -60 40 -54 94 8 66 2 71 -74 53 -66 -15 -98 -9 -98
17 0 7 28 16 76 23 64 9 82 16 107 41 l30 31 -30 34 -30 34 -16 -29 c-16 -28
-17 -28 -109 -28 l-92 0 -93 61 -93 62 0 93 0 94 -347 2 -347 3 -30 93 -30 92
-411 0 -411 0 -32 -65 -32 -65 -404 0 c-440 0 -461 -2 -519 -58 -38 -36 -58
-75 -66 -131 l-6 -46 -708 0 -708 0 -51 118 -50 117 -1762 0 -1762 0 -34 35
-34 35 -221 0 -221 0 -29 30 -29 30 -253 0 -253 0 -32 -65z m497 -35 l29 -30
-222 0 c-122 0 -222 2 -222 5 0 2 5 16 12 30 l11 25 182 0 181 0 29 -30z
m7422 -145 c16 -64 27 -118 23 -120 -4 -2 -101 -4 -217 -4 l-210 0 -5 68 c-6
77 -29 120 -82 152 -31 19 -31 19 215 19 l246 0 30 -115z m-502 20 c18 -17 25
-35 25 -64 0 -22 -4 -42 -8 -45 -5 -3 -37 23 -71 58 -66 67 -66 74 -3 75 22 1
41 -7 57 -24z m-2867 -298 l2 -278 -230 3 c-204 3 -231 5 -247 21 -16 16 -18
43 -21 248 -3 250 1 272 50 282 13 2 118 4 233 3 l210 -1 3 -278z m2797 223
c49 -50 57 -62 45 -70 -40 -25 -103 0 -121 48 -10 26 -3 82 10 82 3 0 33 -27
66 -60z m-3385 18 c-16 -27 -20 -51 -20 -136 l0 -102 -1996 2 -1995 3 0 128
c0 70 0 129 1 132 0 3 907 5 2015 5 l2015 0 -20 -32z m3238 -25 l-3 -58 -470
0 -470 0 1 38 c1 21 9 46 19 57 18 19 33 20 472 20 l454 0 -3 -57z m-9228 -5
c0 -71 15 -122 56 -185 l34 -53 -182 2 -183 3 -3 143 -3 142 141 0 140 0 0
-52z m952 -27 c4 -61 11 -92 34 -137 16 -32 31 -62 32 -66 2 -5 -96 -8 -217
-8 l-221 0 34 53 c41 63 56 114 56 185 l0 52 139 0 138 0 5 -79z m828 -66 l0
-145 -115 0 -115 0 29 53 c31 55 51 133 51 197 l0 40 75 0 75 0 0 -145z m8816
-27 c12 -36 25 -76 29 -87 l6 -21 -1175 0 -1176 0 0 60 0 60 961 0 961 0 -4
30 -5 30 190 -2 190 -3 23 -67z m161 -171 c320 -950 378 -1118 404 -1167 87
-163 259 -274 467 -300 47 -6 104 -7 141 -2 73 10 81 3 81 -75 0 -85 -56 -143
-169 -177 -78 -23 -192 -31 -213 -14 -28 21 -7 38 61 48 107 15 143 58 102
123 -24 38 -42 49 -131 78 -36 11 -101 38 -145 59 -93 45 -182 129 -240 225
-31 52 -207 566 -453 1323 l-40 122 27 0 c25 0 29 -8 108 -243z m-2579 121 l3
-58 -651 0 -650 0 0 60 0 60 648 -2 647 -3 3 -57z m-8528 -114 c0 -106 -3
-128 -37 -241 l-38 -125 -3 228 c-2 206 -1 230 15 241 9 7 27 13 40 13 23 0
23 -1 23 -116z m11146 -454 c84 -261 154 -478 154 -482 0 -5 -38 -8 -84 -8
l-85 0 -22 40 c-35 62 -62 70 -248 70 l-161 0 0 90 0 90 53 0 c94 1 175 45
223 122 108 171 -14 398 -215 399 l-61 1 0 79 0 80 146 -3 147 -3 153 -475z
m-4824 373 c7 -140 44 -193 149 -213 69 -13 1873 -13 1954 0 115 19 188 105
202 238 l6 62 388 0 389 0 0 -480 0 -480 -2631 0 -2632 0 -99 95 -99 95 -809
0 -810 0 0 385 0 385 1994 0 1994 0 4 -87z m2199 37 c-2 -25 -12 -62 -22 -82
-37 -72 1 -68 -644 -68 -319 0 -585 4 -591 8 -23 15 -34 53 -34 121 l0 71 648
-2 647 -3 -4 -45z m1059 -430 l0 -480 -50 0 -50 0 0 480 0 480 50 0 50 0 0
-480z m170 0 l0 -480 -53 0 -52 0 0 480 0 480 52 0 53 0 0 -480z m160 0 l0
-480 -50 0 -50 0 0 480 0 480 50 0 50 0 0 -480z m170 0 l0 -480 -50 0 -50 0 0
480 0 480 50 0 50 0 0 -480z m170 0 l0 -480 -50 0 -50 0 0 480 0 480 50 0 50
0 0 -480z m170 0 l0 -480 -50 0 -50 0 0 480 0 480 50 0 50 0 0 -480z m162 378
c-3 -91 -6 -106 -27 -128 -79 -86 -83 -228 -9 -326 l34 -44 0 -180 0 -180 -45
0 -45 0 -2 248 c-1 136 -2 352 -2 479 l-1 233 50 0 50 0 -3 -102z m-10026 70
c38 -18 67 -23 129 -23 62 0 91 5 129 23 47 21 60 22 334 22 263 0 287 -1 316
-19 17 -11 58 -27 90 -36 78 -23 151 -15 231 24 61 30 66 31 209 31 l146 0 0
-380 0 -380 -1035 0 -1035 0 0 380 0 380 219 0 c205 0 221 -1 267 -22z m10277
-170 c9 -5 17 -12 17 -16 0 -4 -56 -63 -125 -132 -137 -136 -138 -136 -151
-52 -14 94 43 184 131 207 50 13 94 10 128 -7z m96 -99 c27 -77 7 -154 -52
-206 -60 -52 -153 -65 -204 -28 -16 12 -6 25 107 137 69 68 128 125 132 126 3
1 11 -12 17 -29z m-6776 -797 c61 -104 114 -229 138 -327 14 -61 19 -115 18
-230 l0 -150 -18 60 c-39 134 -132 272 -208 309 l-42 21 -1 229 0 230 33 -32
c19 -18 54 -68 80 -110z m7206 -19 c12 -38 36 -89 52 -116 31 -51 36 -65 17
-49 -7 5 -74 44 -150 86 l-136 76 -1206 0 -1206 0 0 35 0 35 1304 0 1303 0 22
-67z m-4691 7 c-83 -55 -127 -141 -127 -250 -1 -68 28 -150 62 -179 28 -23 19
-30 -15 -13 -30 16 -120 17 -1125 14 l-1092 -4 -5 24 c-3 12 -7 46 -11 74 -8
71 -45 177 -98 279 l-44 85 1250 0 1250 0 -45 -30z m-4539 -70 l-1 -90 -827 1
c-904 1 -881 -1 -556 53 210 35 476 66 740 87 183 14 526 36 593 38 l53 1 -2
-90z m1831 0 l0 -90 -820 0 -820 0 0 90 0 90 820 0 820 0 0 -90z m4523 75 c94
-39 157 -135 157 -240 -1 -103 -52 -186 -145 -229 -73 -35 -95 -34 -95 3 0 24
5 29 32 35 18 3 49 18 68 31 133 92 96 313 -60 352 -28 7 -36 15 -38 36 -3 23
0 27 21 27 14 0 41 -7 60 -15z m-913 -235 l0 -210 -362 0 c-200 0 -380 4 -401
9 -207 48 -213 339 -9 401 15 5 195 9 400 9 l372 1 0 -210z m700 190 c0 -20
-7 -20 -315 -20 -173 0 -315 -4 -315 -8 0 -29 29 -32 352 -32 321 0 328 0 328
-20 0 -20 -7 -20 -326 -20 -256 0 -325 -3 -322 -12 4 -10 86 -14 356 -16 344
-2 352 -3 352 -22 0 -20 -7 -20 -351 -20 -328 0 -350 -1 -347 -17 3 -17 28
-18 321 -21 309 -2 317 -3 317 -22 0 -20 -7 -20 -320 -20 -315 0 -320 0 -320
-20 0 -20 5 -21 293 -20 275 1 292 0 292 -17 0 -17 -19 -18 -299 -23 -227 -4
-300 -8 -304 -17 -3 -10 55 -13 267 -13 264 0 271 0 271 -20 0 -20 -7 -20
-279 -20 -278 0 -280 0 -295 -22 -15 -21 -16 -3 -16 210 l0 232 330 0 c323 0
330 0 330 -20z m2252 -86 c-220 -106 -439 -164 -700 -186 -301 -26 -657 38
-945 171 -168 78 -243 71 813 70 l945 -1 -113 -54z m598 -4 l0 -60 -217 2
-218 3 -3 58 -3 57 221 0 220 0 0 -60z m488 -187 c159 -86 202 -116 202 -139
0 -21 -35 -34 -93 -34 -132 0 -333 -55 -442 -121 -59 -36 -141 -108 -167 -147
-15 -22 -18 -23 -44 -9 -47 24 -158 132 -213 206 -52 70 -103 171 -115 228
l-7 31 42 -14 c74 -26 238 -46 314 -39 158 15 213 74 166 180 -12 26 -21 49
-21 51 0 7 209 -100 378 -193z m-1840 -200 c48 -35 72 -81 72 -135 0 -46 -24
-118 -39 -118 -5 1 -149 246 -160 273 -7 18 99 1 127 -20z m-2317 -33 c10 -6
19 -19 19 -30 0 -11 -9 -24 -19 -30 -12 -6 -129 -10 -310 -10 -250 0 -292 2
-305 16 -9 8 -16 19 -16 24 0 5 7 16 16 24 13 14 55 16 305 16 181 0 298 -4
310 -10z m1233 -12 c8 -13 8 -23 0 -35 -10 -17 -48 -18 -512 -21 -445 -2 -502
0 -516 14 -9 8 -16 19 -16 24 0 5 7 16 16 24 14 14 71 16 516 14 464 -3 502
-4 512 -20z m950 -119 c42 -73 74 -134 71 -137 -10 -10 -75 -3 -102 12 -59 30
-93 87 -93 152 0 39 24 104 38 104 6 0 44 -59 86 -131z m-2249 -132 c-173
-126 -266 -339 -236 -537 35 -222 191 -395 407 -450 73 -19 112 -20 796 -20
l719 0 19 -46 c11 -25 20 -48 20 -50 0 -3 -327 -4 -727 -2 -712 4 -730 4 -806
26 -200 56 -366 192 -456 377 -38 78 -58 158 -71 276 -5 52 -15 112 -21 134
-20 74 -83 179 -148 247 l-63 68 298 -1 299 0 -30 -22z m687 -52 c40 -74 79
-184 98 -275 15 -74 13 -278 -4 -365 -8 -38 -13 -71 -11 -73 6 -6 56 120 79
200 37 128 50 275 37 401 -6 57 -16 119 -21 138 -6 19 -10 38 -10 43 0 17 289
-1 357 -22 169 -53 295 -200 325 -379 39 -232 -111 -466 -339 -529 -61 -17
-109 -19 -483 -19 -468 0 -498 4 -608 74 -372 241 -245 811 193 871 33 4 125
7 204 6 l145 -1 38 -70z m3598 -3381 c58 -8 134 -23 170 -32 l65 -16 -915
-227 c-503 -126 -919 -228 -923 -229 -12 0 88 86 168 145 283 209 628 341 985
375 118 11 312 4 450 -16z m545 -229 c21 -60 55 -159 76 -220 22 -60 39 -112
39 -116 0 -7 -158 -44 -164 -38 -3 4 -88 230 -143 382 -13 38 -22 71 -19 74 9
9 161 40 167 34 3 -3 23 -55 44 -116z m-400 13 c4 -13 38 -113 76 -222 38
-109 69 -204 69 -210 0 -12 -102 -37 -1170 -286 -283 -66 -559 -131 -613 -144
l-99 -24 -17 41 c-55 131 -154 387 -150 390 2 3 369 95 814 206 446 111 869
217 940 235 72 18 133 34 137 35 4 0 10 -9 13 -21z"/>
<path d="M11983 6871 c-24 -4 -46 -10 -49 -14 -12 -11 15 -84 42 -117 43 -51
84 -32 84 40 0 27 -24 102 -32 99 -2 -1 -22 -5 -45 -8z"/>
<path d="M12105 6871 c-10 -9 -4 -107 8 -130 21 -41 43 -49 69 -23 19 18 23
33 23 85 l0 62 -48 5 c-26 4 -50 4 -52 1z"/>
<path d="M11815 6821 c-58 -35 -60 -45 -18 -89 58 -61 123 -70 123 -17 0 32
-21 73 -52 102 -23 22 -24 22 -53 4z"/>
<path d="M12270 6794 c-90 -103 -43 -184 58 -99 65 56 65 87 1 120 -26 14 -29
13 -59 -21z"/>
</g>
</svg>
