<svg xmlns="http://www.w3.org/2000/svg" xmlns:svgjs="http://svgjs.com/svgjs" xmlns:xlink="http://www.w3.org/1999/xlink" width="288" height="288"><svg xmlns="http://www.w3.org/2000/svg" width="288" height="288" enable-background="new 0 0 512 512" viewBox="0 0 512 512"><path fill="#fff" d="M278.757 249.941c-7.248-2.052-14.931-3.129-22.649-3.129-7.974 0-15.699 1.155-23.165 3.343.011.224.131.446.131.672v40.228c0 .172-.162.34-.163.511 6.903-4.22 14.844-6.547 23.165-6.547 8.028 0 15.941 2.175 22.676 6.116 0-.027.173-.054.173-.082v-40.226C278.925 250.528 278.737 250.236 278.757 249.941zM215.984 238.764c-3.505-4.253-8.811-6.963-14.75-6.963H65.898l45.354-44.577h17.385c10.551 0 19.104-8.554 19.104-19.104 0-10.551-8.554-19.104-19.104-19.104h-25.201c-5.009 0-9.82 1.968-13.392 5.479L5.712 237.38C2.058 240.971 0 245.881 0 251.005v36.292c0 40.529 32.666 73.715 73.543 75.598 1.215.056 2.435.09 3.664.09h67.197c20.364 0 39.443-7.816 53.722-22.008 14.325-14.238 22.212-33.302 22.212-53.678v-36.393C220.338 246.294 218.704 242.065 215.984 238.764zM506.288 237.38l-84.331-82.885c-3.573-3.511-8.383-5.479-13.392-5.479h-25.201c-10.551 0-19.104 8.554-19.104 19.104 0 10.551 8.554 19.104 19.104 19.104h17.385l45.354 44.577H310.766c-6.032 0-11.404 2.803-14.905 7.171-2.622 3.269-4.199 7.415-4.199 11.934v36.391c0 20.377 7.889 39.442 22.212 53.678 14.277 14.193 33.358 22.008 53.722 22.008h67.197c.978 0 1.949-.037 2.919-.073C478.935 361.398 512 328.07 512 287.296v-36.292C512 245.881 509.942 240.971 506.288 237.38z" class="color000 svgShape"/></svg></svg>