<svg xmlns="http://www.w3.org/2000/svg" xmlns:svgjs="http://svgjs.com/svgjs" xmlns:xlink="http://www.w3.org/1999/xlink" width="288" height="288"><svg xmlns="http://www.w3.org/2000/svg" width="288" height="288" enable-background="new 0 0 611.997 611.997" viewBox="0 0 611.997 611.997"><path fill="#fff" d="M586.251,172.525c-1.308-12.356-7.935-21.801-17.73-25.267c-3.221-1.139-6.915-1.742-10.679-1.742
			c-7.936,0-15.283,2.608-19.649,6.976c-3.421,3.418-7.332,9.551-6.541,19.354c1.273,15.739-0.222,60.376-1.114,87.045
			c-0.331,9.891-0.57,17.037-0.572,19.777c0,0.585-0.156,3.503-3.216,3.503c-5.433,0-5.433-2.334-5.433-3.212
			c-0.001-13.775-1.063-93.978-3.889-128.137c-0.875-10.621-6.977-19.009-16.327-22.438c-2.933-1.074-6.049-1.619-9.259-1.619
			c-7.597,0-15.024,3.071-20.377,8.426c-4.233,4.232-9.131,11.766-8.44,23.634c0.453,7.651,1.131,18.09,1.849,29.139
			c1.667,25.506,3.751,83.284,3.751,93.102c0.001,2.066-0.494,3.213-0.79,3.714c-0.278,0.469-1.013,1.715-4.511,1.715
			c-6.15,0-6.38-3.203-6.386-3.332c-0.005-6.13-0.791-49.136-1.683-68.82c-1.109-24.513-2.49-55.022-2.49-68.022
			c0-11.569-6.685-21.527-17.448-25.992c-3.657-1.514-7.478-2.283-11.355-2.283c-7.401,0-14.278,2.8-19.359,7.884
			c-5.858,5.858-8.955,14.308-8.955,24.441c0,31.779,1.537,123.572,2.11,133.36c-0.07,0.724-0.638,4.846-4.585,4.846
			c-3.267,0-3.874-3.207-3.983-4.579c-0.329-4.193-0.695-16.924-1.083-30.403c-0.384-13.329-0.781-27.113-1.215-35.583l-0.031-0.606
			c-0.862-16.798-1.84-35.836-2.922-52.226c-0.936-14.286-7.787-24.852-18.795-28.989c-3.054-1.149-6.288-1.731-9.612-1.731
			c-7.9,0-15.796,3.366-21.663,9.233c-6.54,6.539-10.143,15.697-10.15,25.797c0.005,7.596,1.546,19.883,3.34,34.174
			c4.714,37.584,9.381,105.313,1.904,127.57c-0.101,0.244-0.204,0.51-0.315,0.797c-0.724,1.89-2.074,5.407-11.065,12.213
			c-2.311,1.748-4.525,2.564-6.968,2.564c-6.497,0-14.16-5.85-21.57-11.507c-1.696-1.295-3.38-2.581-5.048-3.799
			c-6.773-4.956-13.777-10.083-21.923-12.066c-2.177-0.527-4.495-0.796-6.894-0.796c-10.19,0-21.395,4.875-29.241,12.722
			c-7.119,7.118-10.526,15.674-9.594,24.094c0.671,6.036,3.951,14.807,15.763,22.3c6.013,3.813,12.015,7.288,18.366,10.965
			c24.948,14.464,57.222,35.332,85.71,68.694c0.723,1.093,1.909,4.804,1.236,7.096l-0.062,0.206l-24.043,109.25
			c-0.18,0.864-1.622,8.617,3.517,14.95c3.768,4.641,9.728,6.993,17.719,6.993h256.896c18.356,0,20.517-11.545,20.545-20.231
			C612.211,509.606,587.708,186.356,586.251,172.525z" class="color000 svgShape"/><path fill="#fff" d="M241.392,411.917c-1.18-0.676-2.273-1.302-3.293-1.892c-6.283-3.638-12.777-7.399-19.179-11.459
			c-21.124-13.402-26.02-31.055-27.057-40.38c-1.746-15.785,4.328-31.912,16.658-44.243c12.485-12.484,29.93-19.938,46.666-19.938
			c4.349,0,8.619,0.5,12.683,1.483c10.653,2.597,19.013,7.826,25.786,12.598c1.79,1.261,4.038,1.985,6.171,1.985
			c2.438,0,4.634-0.939,6.185-2.641c1.155-1.268,2.461-3.526,2.13-7.088c-0.852-9.123-1.243-20.8-1.654-33.162
			c-0.629-18.884-1.342-40.288-3.871-60.447c-0.373-2.97-0.694-5.415-0.976-7.566c-0.69-5.261-1.149-8.767-1.577-13.982
			c-0.041-5.939-3.114-10.523-4.44-12.499l-0.17-0.254c-17.791-26.773-56.668-129.498-60.091-136.285
			c-4.557-9.005-11.905-15.554-20.691-18.44c-3.269-1.074-6.646-1.619-10.034-1.619c-8.239,0-15.99,3.292-21.265,9.028
			c-7.959,8.659-9.307,21.18-3.699,34.35c6.41,15.073,14.103,32.46,20.89,47.8l0.304,0.687c3.432,7.756,9.296,20.237,14.965,32.307
			c5.732,12.203,11.147,23.731,12.744,27.619c0.525,1.277,1.429,4.411-1.488,5.885c-0.726,0.367-1.399,0.552-2.002,0.552
			c-2.041,0.001-3.877-2.214-4.278-2.816c-3.92-9.026-43.934-91.609-58.266-119.967c-4.57-9.044-11.145-15.19-19.015-17.777
			c-2.678-0.88-5.471-1.326-8.303-1.326c-8.185,0-16.07,3.712-21.638,10.185c-7.591,8.836-9.064,20.739-3.847,31.062
			c5.837,11.55,17.856,38.265,28.46,61.832c8.076,17.957,26.776,56.704,29.537,62.177c0.055,0.126,1.296,3.087-4.192,5.861
			c-1.242,0.628-2.364,0.958-3.246,0.958c-1.466,0.001-2.79-1.148-3.933-3.414c-4.429-8.761-28.629-61.27-38.647-84.787
			c-4.718-11.064-8.559-20.065-11.495-26.843c-4.733-10.9-12.504-15.415-18.19-17.282c-2.867-0.942-5.871-1.419-8.929-1.419
			c-7.911,0-15.416,3.176-20.591,8.713c-6.8,7.276-8.463,17.515-4.451,27.386c12.909,31.821,48.119,103.837,54.325,116.117
			c0.209,0.414,0.522,1.231,0.266,2.045c-0.341,1.088-1.643,2.249-3.666,3.272c-0.59,0.298-1.115,0.448-1.563,0.448
			c-1.366,0-2.612-1.579-2.888-2.125c-1.236-2.442-4.668-8.703-9.419-17.371c-12.83-23.406-34.303-62.581-40.268-77.21
			c-3.715-9.102-9.972-12.812-14.566-14.322c-1.978-0.65-4.159-0.981-6.481-0.981c-8.013,0-17.235,4.015-22.949,9.988
			c-7.178,7.511-8.834,18.929-4.427,30.549c4.934,12.994,128.846,312.509,158.86,371.428c1.675,3.29,6.129,12.029,15.964,12.029
			c0,0,0,0,0.001,0c3.421,0,7.183-1.059,11.498-3.241l115.409-58.326c3.507-1.769,4.5-5.982,4.722-7.231
			c0.755-4.261-0.621-8.518-3.874-11.989C281.539,434.898,255.423,419.949,241.392,411.917z" class="color000 svgShape"/></svg></svg>