<svg xmlns="http://www.w3.org/2000/svg" xmlns:svgjs="http://svgjs.com/svgjs" xmlns:xlink="http://www.w3.org/1999/xlink" width="288" height="288"><svg xmlns="http://www.w3.org/2000/svg" width="288" height="288" enable-background="new 0 0 511.99 511.99" viewBox="0 0 511.99 511.99"><g fill="#fff" class="color000 svgShape" transform="translate(0 -1)"><polygon points="170.664 385.135 204.798 385.143 204.798 368.076 170.664 368.076" class="color000 svgShape"/><polygon points="307.198 385.135 341.331 385.143 341.331 368.076 307.198 368.076" class="color000 svgShape"/><path d="M511.884,400.872L472.913,154.02c-8.166-51.703-38.588-96.794-83.456-123.708l-18.133-10.889
				c-0.119-0.068-0.239-0.094-0.358-0.128c-0.887-0.478-1.826-0.862-2.85-1.007c-1.024-0.145-2.022-0.043-2.987,0.162
				c-0.06,0.009-0.111,0-0.171,0.017c-0.06,0.008-0.111,0-0.171,0.017l-32.725,8.474c-49.365,11.392-101.564,11.392-150.801,0.043
				l-34.133-8.533c-0.043-0.009-0.085,0-0.128-0.017c-0.077-0.017-0.154-0.017-0.23-0.017c-0.947-0.196-1.911-0.29-2.884-0.145
				c-1.033,0.145-1.963,0.529-2.842,0.998c-0.128,0.043-0.256,0.068-0.375,0.137l-18.133,10.889
				c-44.877,26.914-75.29,72.004-83.456,123.708L0.106,400.872c-0.393,2.466,0.316,4.984,1.937,6.878
				c1.101,1.297,2.611,2.039,4.224,2.492l-0.375,1.502c-2.014,8.013-0.239,16.358,4.847,22.869
				c5.094,6.519,12.749,10.266,21.018,10.266h22.349c12.262,0,22.903-8.312,25.865-20.216l3.482-13.918h1.877
				c4.19,0,7.765-3.046,8.422-7.185l17.178-107.341V470.18c0,3.917,2.662,7.339,6.477,8.286l3.405,0.845
				c41.463,10.377,84.019,15.812,126.652,16.461V193.641l4.062,2.5c0.256,0.162,0.546,0.23,0.811,0.358
				c0.239,0.12,0.469,0.222,0.725,0.316c0.956,0.35,1.937,0.597,2.935,0.597s1.988-0.247,2.944-0.597
				c0.247-0.094,0.478-0.196,0.717-0.316c0.273-0.128,0.555-0.196,0.819-0.358l4.053-2.5v302.131
				c42.633-0.649,85.197-6.084,126.643-16.452l3.413-0.853c3.806-0.947,6.477-4.369,6.477-8.286V296.22l17.178,107.341
				c0.657,4.139,4.233,7.185,8.422,7.185h1.877l3.661,14.609c2.867,11.494,13.141,19.524,24.977,19.524h24.226
				c7.987,0,15.386-3.61,20.301-9.916c4.915-6.289,6.63-14.345,4.685-22.084l-0.657-2.637c1.604-0.452,3.106-1.195,4.216-2.492
				C511.569,405.856,512.277,403.339,511.884,400.872z M63.423,420.533c-1.075,4.284-4.898,7.279-9.318,7.279H31.756
				c-2.978,0-5.734-1.357-7.561-3.695c-1.843-2.347-2.475-5.35-1.758-8.243l1.289-5.129h42.138L63.423,420.533z M221.862,368.079
				v17.058c0,9.412-7.654,17.075-17.075,17.075H170.67c-9.412,0-17.075-7.663-17.075-17.075v-17.058
				c-4.719,0-8.533-3.823-8.533-8.533c0-4.719,3.814-8.533,8.533-8.533h8.533h51.2h8.533c4.719,0,8.533,3.814,8.533,8.533
				C230.395,364.256,226.581,368.079,221.862,368.079z M230.395,325.412c-4.71,0-8.533-3.823-8.533-8.533
				c0-4.719,3.823-8.533,8.533-8.533c4.719,0,8.533,3.814,8.533,8.533C238.928,321.589,235.114,325.412,230.395,325.412z
				 M230.395,291.279c-4.71,0-8.533-3.823-8.533-8.533c0-4.719,3.823-8.533,8.533-8.533c4.719,0,8.533,3.814,8.533,8.533
				C238.928,287.456,235.114,291.279,230.395,291.279z M230.395,257.146c-4.71,0-8.533-3.823-8.533-8.533
				c0-4.719,3.823-8.533,8.533-8.533c4.719,0,8.533,3.814,8.533,8.533C238.928,253.323,235.114,257.146,230.395,257.146z
				 M230.395,223.012c-4.71,0-8.533-3.823-8.533-8.533c0-4.719,3.823-8.533,8.533-8.533c4.719,0,8.533,3.814,8.533,8.533
				C238.928,219.189,235.114,223.012,230.395,223.012z M264.528,161.299l-8.533,12.467l-8.533-12.467v-0.009L164.799,40.467
				l12.484,3.123c51.883,11.972,106.735,11.981,158.839-0.06l10.906-2.825l-54.997,80.393l-27.503,40.192V161.299z M281.595,257.146
				c-4.71,0-8.533-3.823-8.533-8.533c0-4.719,3.823-8.533,8.533-8.533c4.719,0,8.533,3.814,8.533,8.533
				C290.129,253.323,286.314,257.146,281.595,257.146z M290.129,282.746c0,4.71-3.814,8.533-8.533,8.533
				c-4.71,0-8.533-3.823-8.533-8.533c0-4.719,3.823-8.533,8.533-8.533C286.314,274.212,290.129,278.027,290.129,282.746z
				 M281.595,223.012c-4.71,0-8.533-3.823-8.533-8.533c0-4.719,3.823-8.533,8.533-8.533c4.719,0,8.533,3.814,8.533,8.533
				C290.129,219.189,286.314,223.012,281.595,223.012z M273.062,316.879c0-4.719,3.823-8.533,8.533-8.533
				c4.719,0,8.533,3.814,8.533,8.533c0,4.71-3.814,8.533-8.533,8.533C276.885,325.412,273.062,321.589,273.062,316.879z
				 M358.395,368.079v17.058c0,9.412-7.654,17.075-17.075,17.075h-34.116c-9.412,0-17.075-7.663-17.075-17.075v-17.058
				c-4.719,0-8.533-3.823-8.533-8.533c0-4.719,3.814-8.533,8.533-8.533h8.533h51.2h8.533c4.719,0,8.533,3.814,8.533,8.533
				C366.928,364.256,363.114,368.079,358.395,368.079z M488.255,424.467c-1.655,2.125-4.156,3.345-6.852,3.345h-24.226
				c-3.985,0-7.458-2.714-8.431-6.596l-2.62-10.47h42.138l1.579,6.263C490.491,419.629,489.911,422.342,488.255,424.467z" class="color000 svgShape"/></g></svg></svg>