<svg xmlns="http://www.w3.org/2000/svg" xmlns:svgjs="http://svgjs.com/svgjs" xmlns:xlink="http://www.w3.org/1999/xlink" width="288" height="288"><svg xmlns="http://www.w3.org/2000/svg" width="288" height="288" enable-background="new 0 0 512.014 512.014" viewBox="0 0 512.014 512.014"><path fill="#fff" d="M403.31,332.42c7.62-18.577,11.832-38.899,11.832-60.188v-3.878c-13.516,6.726-28.74,10.518-44.834,10.518
			c-23.149,0-45.769-8.035-63.69-22.629c-14.431-11.749-25.351-27.329-31.513-44.712h-38.176
			c-6.162,17.384-17.082,32.964-31.513,44.712c-17.921,14.592-40.541,22.629-63.69,22.629c-16.094,0-31.318-3.792-44.834-10.518
			v3.878c0,21.29,4.214,41.611,11.832,60.188l-14.827,14.827l90.977,90.977l13.336-13.336
			c16.492,11.226,36.395,17.797,57.806,17.797c21.411,0,41.315-6.571,57.807-17.797l13.336,13.336l90.977-90.977L403.31,332.42z
			 M186.874,362.133c-2.301-7.07-3.558-14.607-3.558-22.435s1.259-15.364,3.558-22.435l38.859,22.435L186.874,362.133z
			 M240.874,410.802c-15.251-3.244-28.749-11.28-38.833-22.458l38.833-22.42V410.802z M240.874,313.471l-38.833-22.42
			c10.085-11.178,23.581-19.214,38.833-22.458V313.471z M271.159,268.594c15.251,3.244,28.749,11.28,38.834,22.457l-38.834,22.421
			V268.594z M271.159,410.802v-44.878l38.834,22.421C299.908,399.524,286.411,407.558,271.159,410.802z M325.161,362.133
			l-38.859-22.435l38.859-22.435c2.3,7.069,3.558,14.606,3.558,22.434C328.72,347.526,327.461,355.062,325.161,362.133z" class="color000 svgShape"/><rect width="57.161" height="162.434" x="69.165" y="353.147" fill="#fff" class="color000 svgShape" transform="rotate(-45.001 97.741 434.367)"/><rect width="162.434" height="57.161" x="333.051" y="405.794" fill="#fff" class="color000 svgShape" transform="rotate(-45.001 414.265 434.382)"/><path fill="#fff" d="M256.017 0c-57.546 0-109.756 30.732-137.911 79.713 7.58-1.824 15.489-2.797 23.621-2.797h228.582c8.132 0 16.041.973 23.621 2.797C365.773 30.732 313.562 0 256.017 0zM141.726 107.2c-38.98 0-70.693 31.713-70.693 70.693 0 20.467 8.752 38.922 22.699 51.844L216.269 107.2H141.726zM423.742 131.687l-99.662 99.662c.548.475 1.095.951 1.659 1.41 12.718 10.355 28.129 15.829 44.569 15.829 38.981-.001 70.694-31.714 70.694-70.695C441.001 160.239 434.481 144.088 423.742 131.687zM370.309 107.2H259.098L120.856 245.44c6.6 2.043 13.608 3.147 20.87 3.147 16.439 0 31.851-5.473 44.57-15.829 12.371-10.073 21.057-24.143 24.458-39.619l2.612-11.893h85.304l2.613 11.893c1.034 4.705 2.563 9.278 4.529 13.651l93.391-93.391C390.375 109.428 380.6 107.2 370.309 107.2z" class="color000 svgShape"/></svg></svg>